<?xml version="1.0" encoding="utf-8"?>
<!-- Generator: Adobe Illustrator 16.0.0, SVG Export Plug-In . SVG Version: 6.00 Build 0)  -->
<!DOCTYPE svg PUBLIC "-//W3C//DTD SVG 1.1//EN" "http://www.w3.org/Graphics/SVG/1.1/DTD/svg11.dtd">
<svg version="1.1" xmlns="http://www.w3.org/2000/svg" xmlns:xlink="http://www.w3.org/1999/xlink" x="0px" y="0px" width="220px"
	 height="53px" viewBox="0 0 220 53" enable-background="new 0 0 220 53" xml:space="preserve">
<g id="Layer_1">
	<g>
		<path fill="#163760" d="M12.021,43.309L2.173,3.094c0,0,21.479-2.718,34.207,7.703v40.216
			C23.652,40.59,12.021,43.309,12.021,43.309z"/>
		<path fill="#194788" d="M63.62,43.309l9.849-40.215c0,0-21.479-2.718-34.207,7.703v40.216C51.99,40.59,63.62,43.309,63.62,43.309z
			"/>
	</g>
	<g>
		<g>
			<path fill="#163760" d="M85.039,39.961c0.047,0,0.087,0.017,0.121,0.05l0.283,0.305c-0.208,0.222-0.435,0.421-0.68,0.599
				s-0.514,0.329-0.804,0.454s-0.609,0.222-0.957,0.291s-0.729,0.103-1.144,0.103c-0.695,0-1.331-0.122-1.91-0.365
				s-1.075-0.588-1.488-1.035c-0.413-0.446-0.736-0.986-0.967-1.619c-0.231-0.633-0.347-1.336-0.347-2.111
				c0-0.761,0.12-1.455,0.358-2.083c0.239-0.628,0.574-1.168,1.006-1.619s0.949-0.801,1.552-1.049
				c0.602-0.248,1.267-0.372,1.995-0.372c0.364,0,0.697,0.027,0.999,0.082s0.584,0.132,0.847,0.234s0.509,0.228,0.741,0.379
				c0.231,0.151,0.458,0.326,0.68,0.524l-0.22,0.319c-0.038,0.057-0.097,0.085-0.177,0.085c-0.042,0-0.097-0.025-0.163-0.074
				c-0.066-0.05-0.15-0.111-0.251-0.184s-0.225-0.154-0.369-0.241s-0.315-0.167-0.514-0.241c-0.198-0.073-0.427-0.135-0.687-0.185
				c-0.26-0.049-0.555-0.074-0.886-0.074c-0.609,0-1.169,0.105-1.679,0.315c-0.51,0.21-0.95,0.51-1.318,0.9
				c-0.369,0.39-0.656,0.862-0.861,1.417c-0.205,0.555-0.308,1.178-0.308,1.867c0,0.708,0.102,1.342,0.305,1.899
				c0.203,0.558,0.484,1.029,0.843,1.414c0.359,0.385,0.783,0.68,1.272,0.886c0.489,0.206,1.019,0.308,1.591,0.308
				c0.359,0,0.679-0.023,0.96-0.071c0.281-0.047,0.54-0.118,0.776-0.212c0.236-0.095,0.456-0.21,0.659-0.347
				c0.203-0.137,0.404-0.298,0.603-0.482c0.023-0.019,0.046-0.034,0.067-0.046C84.985,39.967,85.01,39.961,85.039,39.961z"/>
			<path fill="#163760" d="M89.935,41.647v-10.31h0.673v4.464c0.326-0.401,0.698-0.722,1.116-0.96
				c0.418-0.239,0.887-0.358,1.407-0.358c0.387,0,0.729,0.062,1.023,0.184c0.295,0.123,0.54,0.3,0.733,0.532
				c0.194,0.231,0.34,0.51,0.439,0.836c0.099,0.326,0.149,0.694,0.149,1.105v4.506h-0.673v-4.506c0-0.662-0.151-1.18-0.454-1.556
				c-0.302-0.375-0.765-0.563-1.389-0.563c-0.463,0-0.893,0.119-1.29,0.358c-0.396,0.238-0.751,0.565-1.063,0.981v5.286H89.935z"/>
			<path fill="#163760" d="M100.648,34.597v4.506c0,0.662,0.151,1.18,0.455,1.556c0.303,0.375,0.765,0.563,1.386,0.563
				c0.459,0,0.889-0.117,1.287-0.351c0.398-0.234,0.756-0.559,1.074-0.974v-5.3h0.673v7.05h-0.371c-0.131,0-0.198-0.062-0.203-0.184
				l-0.064-1.049c-0.327,0.406-0.704,0.732-1.132,0.978s-0.905,0.368-1.43,0.368c-0.393,0-0.736-0.062-1.029-0.184
				c-0.293-0.123-0.537-0.3-0.731-0.531s-0.34-0.51-0.44-0.836c-0.099-0.326-0.149-0.694-0.149-1.105v-4.506H100.648z"/>
			<path fill="#163760" d="M110.37,41.647v-7.05h0.354c0.081,0,0.138,0.017,0.174,0.05c0.036,0.033,0.056,0.09,0.06,0.17
				l0.057,1.488c0.227-0.571,0.529-1.019,0.907-1.343c0.378-0.323,0.843-0.485,1.396-0.485c0.212,0,0.408,0.022,0.588,0.067
				s0.35,0.11,0.51,0.195l-0.092,0.468c-0.014,0.076-0.062,0.113-0.142,0.113c-0.028,0-0.068-0.009-0.121-0.028
				c-0.052-0.019-0.117-0.04-0.195-0.063c-0.078-0.024-0.173-0.045-0.287-0.064c-0.114-0.019-0.244-0.028-0.39-0.028
				c-0.534,0-0.972,0.166-1.314,0.496c-0.343,0.331-0.62,0.808-0.833,1.431v4.584H110.37z"/>
			<path fill="#163760" d="M123.188,35.54c-0.024,0.024-0.046,0.044-0.067,0.06c-0.021,0.017-0.051,0.025-0.088,0.025
				c-0.047,0-0.112-0.032-0.195-0.096c-0.083-0.063-0.193-0.133-0.33-0.209c-0.137-0.075-0.308-0.145-0.514-0.209
				c-0.206-0.063-0.455-0.096-0.748-0.096c-0.406,0-0.767,0.072-1.081,0.216c-0.314,0.144-0.579,0.351-0.794,0.62
				c-0.215,0.269-0.379,0.595-0.492,0.978c-0.113,0.383-0.17,0.812-0.17,1.29c0,0.496,0.058,0.936,0.173,1.318
				c0.116,0.383,0.28,0.705,0.493,0.967c0.212,0.262,0.47,0.462,0.772,0.599c0.302,0.137,0.638,0.206,1.006,0.206
				c0.34,0,0.625-0.04,0.854-0.12c0.229-0.081,0.418-0.168,0.567-0.262c0.148-0.095,0.267-0.182,0.354-0.262
				c0.087-0.081,0.157-0.121,0.209-0.121c0.062,0,0.109,0.024,0.142,0.071l0.184,0.227c-0.109,0.142-0.246,0.274-0.411,0.396
				c-0.166,0.123-0.352,0.229-0.56,0.319c-0.208,0.09-0.434,0.16-0.677,0.209c-0.243,0.05-0.497,0.075-0.762,0.075
				c-0.449,0-0.858-0.082-1.229-0.245c-0.371-0.163-0.689-0.399-0.957-0.708s-0.475-0.688-0.624-1.137s-0.223-0.959-0.223-1.531
				c0-0.539,0.071-1.03,0.212-1.474c0.142-0.444,0.349-0.827,0.62-1.148s0.604-0.57,0.999-0.748s0.847-0.266,1.357-0.266
				c0.458,0,0.866,0.073,1.222,0.22c0.357,0.146,0.667,0.345,0.932,0.595L123.188,35.54z"/>
			<path fill="#163760" d="M127.545,41.647v-10.31h0.673v4.464c0.326-0.401,0.698-0.722,1.116-0.96
				c0.418-0.239,0.887-0.358,1.407-0.358c0.387,0,0.729,0.062,1.023,0.184c0.295,0.123,0.54,0.3,0.733,0.532
				c0.194,0.231,0.34,0.51,0.439,0.836c0.099,0.326,0.149,0.694,0.149,1.105v4.506h-0.673v-4.506c0-0.662-0.151-1.18-0.454-1.556
				c-0.302-0.375-0.765-0.563-1.389-0.563c-0.463,0-0.893,0.119-1.29,0.358c-0.396,0.238-0.751,0.565-1.063,0.981v5.286H127.545z"/>
			<path fill="#163760" d="M145.733,34.484c0.505,0,0.958,0.086,1.357,0.259c0.399,0.172,0.735,0.417,1.01,0.733
				c0.273,0.316,0.483,0.698,0.627,1.144s0.216,0.946,0.216,1.499s-0.072,1.051-0.216,1.495c-0.144,0.444-0.354,0.825-0.627,1.141
				c-0.274,0.316-0.611,0.56-1.01,0.729c-0.399,0.17-0.852,0.255-1.357,0.255c-0.506,0-0.958-0.085-1.357-0.255
				c-0.399-0.17-0.737-0.413-1.013-0.729s-0.487-0.697-0.631-1.141c-0.144-0.444-0.216-0.942-0.216-1.495s0.072-1.052,0.216-1.499
				s0.354-0.828,0.631-1.144c0.276-0.317,0.614-0.561,1.013-0.733C144.775,34.57,145.228,34.484,145.733,34.484z M145.733,41.208
				c0.42,0,0.788-0.072,1.102-0.216s0.576-0.351,0.787-0.62c0.21-0.269,0.367-0.594,0.471-0.974c0.104-0.38,0.156-0.807,0.156-1.279
				c0-0.467-0.052-0.893-0.156-1.275c-0.104-0.382-0.261-0.709-0.471-0.981c-0.21-0.271-0.473-0.48-0.787-0.627
				s-0.681-0.22-1.102-0.22s-0.788,0.073-1.102,0.22s-0.576,0.355-0.787,0.627c-0.21,0.272-0.368,0.599-0.475,0.981
				c-0.106,0.383-0.159,0.808-0.159,1.275c0,0.473,0.053,0.899,0.159,1.279c0.106,0.38,0.265,0.705,0.475,0.974
				c0.21,0.269,0.473,0.476,0.787,0.62S145.313,41.208,145.733,41.208z"/>
			<path fill="#163760" d="M153.527,41.647v-6.313l-0.992-0.063c-0.137-0.01-0.206-0.068-0.206-0.177v-0.276h1.198v-0.893
				c0-0.402,0.052-0.755,0.156-1.06s0.25-0.559,0.439-0.762s0.417-0.355,0.684-0.457s0.561-0.152,0.882-0.152
				c0.146,0,0.294,0.013,0.443,0.039c0.148,0.026,0.28,0.062,0.393,0.11l-0.021,0.326c-0.005,0.066-0.05,0.1-0.135,0.1
				c-0.057,0-0.134-0.007-0.23-0.021s-0.216-0.021-0.358-0.021c-0.231,0-0.445,0.035-0.641,0.103s-0.365,0.178-0.506,0.33
				c-0.142,0.151-0.252,0.348-0.33,0.591c-0.078,0.244-0.117,0.542-0.117,0.896v0.872h2.289v0.503H154.2v6.328H153.527z"/>
			<path fill="#163760" d="M173.289,39.961c0.047,0,0.088,0.017,0.121,0.05l0.283,0.305c-0.208,0.222-0.436,0.421-0.681,0.599
				s-0.514,0.329-0.804,0.454c-0.291,0.125-0.609,0.222-0.957,0.291s-0.729,0.103-1.145,0.103c-0.694,0-1.33-0.122-1.909-0.365
				s-1.075-0.588-1.488-1.035s-0.735-0.986-0.968-1.619c-0.23-0.633-0.347-1.336-0.347-2.111c0-0.761,0.12-1.455,0.358-2.083
				c0.238-0.628,0.574-1.168,1.006-1.619s0.949-0.801,1.552-1.049s1.267-0.372,1.995-0.372c0.363,0,0.696,0.027,0.998,0.082
				c0.303,0.054,0.585,0.132,0.848,0.234c0.262,0.102,0.508,0.228,0.74,0.379c0.23,0.151,0.458,0.326,0.68,0.524l-0.219,0.319
				c-0.039,0.057-0.098,0.085-0.178,0.085c-0.043,0-0.097-0.025-0.163-0.074c-0.065-0.05-0.149-0.111-0.251-0.184
				s-0.225-0.154-0.369-0.241s-0.314-0.167-0.514-0.241c-0.198-0.073-0.428-0.135-0.688-0.185c-0.26-0.049-0.555-0.074-0.885-0.074
				c-0.609,0-1.17,0.105-1.68,0.315s-0.949,0.51-1.318,0.9c-0.368,0.39-0.655,0.862-0.861,1.417
				c-0.205,0.555-0.308,1.178-0.308,1.867c0,0.708,0.102,1.342,0.305,1.899c0.203,0.558,0.484,1.029,0.843,1.414
				c0.359,0.385,0.783,0.68,1.272,0.886s1.019,0.308,1.591,0.308c0.359,0,0.679-0.023,0.96-0.071c0.28-0.047,0.54-0.118,0.776-0.212
				c0.236-0.095,0.455-0.21,0.658-0.347c0.203-0.137,0.404-0.298,0.603-0.482c0.023-0.019,0.046-0.034,0.067-0.046
				S173.261,39.961,173.289,39.961z"/>
			<path fill="#163760" d="M178.186,41.647v-10.31h0.672v4.464c0.326-0.401,0.699-0.722,1.117-0.96
				c0.418-0.239,0.887-0.358,1.406-0.358c0.387,0,0.729,0.062,1.023,0.184c0.295,0.123,0.54,0.3,0.733,0.532
				c0.194,0.231,0.341,0.51,0.439,0.836c0.099,0.326,0.149,0.694,0.149,1.105v4.506h-0.674v-4.506c0-0.662-0.15-1.18-0.453-1.556
				c-0.303-0.375-0.766-0.563-1.389-0.563c-0.463,0-0.893,0.119-1.29,0.358c-0.396,0.238-0.751,0.565-1.063,0.981v5.286H178.186z"/>
			<path fill="#163760" d="M188.402,41.647v-7.05h0.354c0.081,0,0.139,0.017,0.174,0.05c0.036,0.033,0.057,0.09,0.061,0.17
				l0.057,1.488c0.227-0.571,0.529-1.019,0.907-1.343c0.378-0.323,0.843-0.485,1.396-0.485c0.213,0,0.408,0.022,0.588,0.067
				s0.35,0.11,0.511,0.195l-0.093,0.468c-0.014,0.076-0.061,0.113-0.141,0.113c-0.029,0-0.068-0.009-0.121-0.028
				c-0.052-0.019-0.117-0.04-0.195-0.063c-0.077-0.024-0.173-0.045-0.286-0.064c-0.114-0.019-0.243-0.028-0.39-0.028
				c-0.534,0-0.973,0.166-1.314,0.496c-0.343,0.331-0.62,0.808-0.833,1.431v4.584H188.402z"/>
			<path fill="#163760" d="M197.748,32.167c0,0.085-0.018,0.164-0.053,0.237s-0.082,0.138-0.139,0.195s-0.123,0.102-0.198,0.135
				c-0.075,0.033-0.155,0.049-0.241,0.049c-0.084,0-0.165-0.017-0.24-0.049c-0.076-0.033-0.143-0.078-0.199-0.135
				s-0.102-0.122-0.135-0.195c-0.032-0.073-0.049-0.152-0.049-0.237s0.017-0.167,0.049-0.245c0.033-0.078,0.078-0.145,0.135-0.202
				c0.057-0.057,0.123-0.101,0.199-0.134c0.075-0.033,0.156-0.05,0.24-0.05c0.086,0,0.166,0.017,0.241,0.05s0.142,0.078,0.198,0.134
				c0.057,0.057,0.104,0.124,0.139,0.202S197.748,32.082,197.748,32.167z M197.451,34.597v7.05h-0.674v-7.05H197.451z"/>
			<path fill="#163760" d="M206.379,35.476c-0.033,0.066-0.086,0.099-0.156,0.099c-0.053,0-0.119-0.03-0.202-0.089
				s-0.191-0.125-0.325-0.198c-0.135-0.073-0.301-0.139-0.496-0.198c-0.197-0.059-0.436-0.089-0.72-0.089
				c-0.255,0-0.487,0.037-0.698,0.11c-0.21,0.073-0.389,0.171-0.538,0.293c-0.149,0.123-0.265,0.265-0.347,0.428
				c-0.084,0.163-0.125,0.333-0.125,0.512c0,0.222,0.057,0.405,0.17,0.551s0.263,0.271,0.447,0.375
				c0.184,0.104,0.393,0.193,0.627,0.269c0.233,0.075,0.473,0.151,0.719,0.227s0.486,0.159,0.719,0.251
				c0.234,0.092,0.443,0.207,0.628,0.344c0.185,0.137,0.333,0.305,0.446,0.503s0.17,0.439,0.17,0.723
				c0,0.307-0.056,0.593-0.166,0.857c-0.111,0.265-0.271,0.494-0.482,0.688c-0.21,0.193-0.469,0.347-0.775,0.46
				c-0.308,0.113-0.656,0.17-1.049,0.17c-0.496,0-0.924-0.079-1.283-0.237c-0.358-0.158-0.68-0.365-0.963-0.62l0.162-0.241
				c0.024-0.038,0.051-0.066,0.078-0.085c0.029-0.019,0.068-0.028,0.121-0.028c0.061,0,0.137,0.038,0.227,0.113
				s0.207,0.157,0.351,0.245s0.323,0.169,0.538,0.244c0.215,0.076,0.48,0.113,0.798,0.113c0.298,0,0.56-0.041,0.786-0.124
				c0.227-0.083,0.416-0.195,0.566-0.336c0.152-0.142,0.267-0.308,0.344-0.5c0.078-0.191,0.117-0.393,0.117-0.606
				c0-0.236-0.057-0.432-0.17-0.588s-0.262-0.288-0.446-0.397c-0.185-0.108-0.394-0.201-0.627-0.276
				c-0.233-0.075-0.475-0.151-0.723-0.227s-0.489-0.158-0.723-0.248s-0.442-0.203-0.628-0.34c-0.184-0.137-0.332-0.303-0.445-0.5
				c-0.113-0.196-0.17-0.44-0.17-0.733c0-0.25,0.054-0.491,0.162-0.723c0.109-0.231,0.264-0.435,0.465-0.609
				c0.2-0.174,0.445-0.314,0.732-0.418c0.289-0.104,0.612-0.156,0.971-0.156c0.43,0,0.812,0.062,1.145,0.187
				c0.334,0.125,0.639,0.315,0.918,0.572L206.379,35.476z"/>
			<path fill="#163760" d="M213.061,41.761c-0.478,0-0.848-0.132-1.113-0.396c-0.264-0.265-0.396-0.673-0.396-1.226V35.32h-1.014
				c-0.051,0-0.094-0.014-0.127-0.042s-0.049-0.068-0.049-0.12v-0.262l1.204-0.085l0.168-2.522c0.005-0.042,0.022-0.08,0.053-0.113
				c0.03-0.033,0.071-0.049,0.122-0.049h0.316v2.692h2.217v0.503h-2.217v4.783c0,0.193,0.024,0.36,0.074,0.5
				c0.049,0.139,0.117,0.254,0.205,0.343c0.088,0.09,0.19,0.156,0.309,0.199c0.117,0.042,0.245,0.063,0.383,0.063
				c0.17,0,0.316-0.025,0.439-0.074c0.122-0.05,0.229-0.104,0.318-0.163s0.163-0.113,0.22-0.163
				c0.057-0.049,0.102-0.074,0.134-0.074c0.039,0,0.076,0.024,0.114,0.071l0.185,0.298c-0.18,0.198-0.408,0.357-0.684,0.478
				C213.645,41.701,213.357,41.761,213.061,41.761z"/>
		</g>
		<g>
			<path fill="#163760" d="M86.851,23.25h3.696V11.526c0-0.352,0.012-0.708,0.036-1.068l-3.072,2.628
				c-0.08,0.064-0.16,0.11-0.24,0.138c-0.08,0.028-0.156,0.042-0.228,0.042c-0.12,0-0.228-0.026-0.324-0.078
				c-0.096-0.052-0.168-0.114-0.216-0.186l-0.672-0.924l5.112-4.428h1.74v15.6h3.384v1.632h-9.216V23.25z"/>
			<path fill="#163760" d="M108.162,18.678h2.604v1.224c0,0.128-0.038,0.236-0.114,0.324c-0.076,0.088-0.194,0.132-0.354,0.132
				h-2.136v4.524h-1.884v-4.524h-7.62c-0.16,0-0.298-0.046-0.414-0.138c-0.116-0.092-0.19-0.206-0.222-0.342l-0.216-1.092
				l8.364-11.1h1.992V18.678z M106.278,11.586c0-0.208,0.006-0.432,0.018-0.672c0.012-0.24,0.038-0.488,0.078-0.744l-6.252,8.508
				h6.156V11.586z"/>
			<path fill="#163760" d="M116.682,25.074c-0.96,0-1.698-0.268-2.214-0.804c-0.516-0.536-0.774-1.308-0.774-2.316v-7.44h-1.464
				c-0.128,0-0.236-0.038-0.324-0.114c-0.088-0.076-0.132-0.194-0.132-0.354v-0.852l1.992-0.252l0.492-3.756
				c0.016-0.12,0.068-0.218,0.156-0.294c0.088-0.076,0.2-0.114,0.336-0.114h1.08v4.188h3.48v1.548h-3.48v7.296
				c0,0.512,0.124,0.892,0.372,1.14c0.248,0.248,0.568,0.372,0.96,0.372c0.224,0,0.418-0.03,0.582-0.09s0.306-0.126,0.426-0.198
				c0.12-0.072,0.222-0.138,0.306-0.198s0.158-0.09,0.222-0.09c0.112,0,0.212,0.068,0.3,0.204l0.624,1.02
				c-0.368,0.344-0.812,0.614-1.332,0.81S117.234,25.074,116.682,25.074z"/>
			<path fill="#163760" d="M121.95,24.882V7.206h2.136v7.152c0.52-0.552,1.096-0.994,1.728-1.326
				c0.632-0.332,1.36-0.498,2.184-0.498c0.664,0,1.25,0.11,1.758,0.33c0.508,0.22,0.932,0.532,1.272,0.936
				c0.34,0.404,0.598,0.89,0.774,1.458c0.176,0.568,0.264,1.196,0.264,1.884v7.74h-2.136v-7.74c0-0.919-0.21-1.634-0.63-2.142
				c-0.42-0.508-1.062-0.762-1.926-0.762c-0.632,0-1.222,0.152-1.77,0.456c-0.548,0.304-1.054,0.716-1.518,1.236v8.952H121.95z"/>
			<path fill="#163760" d="M154.41,24.882h-1.8c-0.208,0-0.376-0.052-0.504-0.156c-0.128-0.104-0.224-0.236-0.288-0.396
				l-1.608-4.152h-7.716l-1.608,4.152c-0.056,0.144-0.152,0.272-0.288,0.384c-0.136,0.112-0.304,0.168-0.504,0.168h-1.8
				l6.876-17.196h2.364L154.41,24.882z M143.142,18.498h6.42l-2.7-6.996c-0.176-0.432-0.348-0.972-0.516-1.62
				c-0.088,0.328-0.174,0.63-0.258,0.906c-0.084,0.276-0.166,0.518-0.246,0.726L143.142,18.498z"/>
			<path fill="#163760" d="M153.726,12.726h1.752c0.168,0,0.308,0.044,0.42,0.132c0.112,0.088,0.192,0.192,0.24,0.312l3.084,7.824
				c0.112,0.288,0.2,0.576,0.264,0.864s0.124,0.572,0.18,0.852c0.064-0.28,0.132-0.564,0.204-0.852
				c0.072-0.288,0.164-0.576,0.276-0.864l3.12-7.824c0.048-0.128,0.126-0.234,0.234-0.318c0.108-0.084,0.242-0.126,0.402-0.126
				h1.668l-4.957,12.156h-1.932L153.726,12.726z"/>
			<path fill="#163760" d="M172.051,12.534c0.727,0,1.398,0.122,2.016,0.366c0.615,0.244,1.146,0.596,1.596,1.056
				c0.447,0.46,0.797,1.028,1.049,1.704c0.252,0.676,0.379,1.446,0.379,2.31c0,0.336-0.035,0.56-0.107,0.672
				c-0.072,0.112-0.209,0.168-0.408,0.168h-8.088c0.016,0.768,0.119,1.436,0.311,2.004c0.193,0.568,0.457,1.042,0.793,1.422
				s0.736,0.664,1.199,0.852c0.465,0.188,0.984,0.282,1.561,0.282c0.535,0,0.998-0.062,1.387-0.186
				c0.387-0.124,0.721-0.258,1.002-0.402c0.279-0.144,0.514-0.278,0.701-0.402s0.35-0.186,0.486-0.186
				c0.176,0,0.312,0.068,0.408,0.204l0.6,0.78c-0.264,0.32-0.58,0.598-0.947,0.834c-0.369,0.236-0.762,0.43-1.182,0.582
				c-0.42,0.152-0.855,0.266-1.303,0.342c-0.447,0.076-0.893,0.114-1.332,0.114c-0.84,0-1.613-0.142-2.322-0.426
				c-0.707-0.284-1.32-0.7-1.836-1.248s-0.918-1.226-1.206-2.034s-0.432-1.736-0.432-2.784c0-0.848,0.13-1.64,0.39-2.376
				c0.26-0.736,0.635-1.374,1.122-1.914c0.487-0.54,1.085-0.964,1.788-1.272C170.377,12.688,171.17,12.534,172.051,12.534z
				 M172.098,14.106c-1.031,0-1.844,0.298-2.436,0.894c-0.592,0.596-0.961,1.422-1.104,2.478h6.611c0-0.496-0.068-0.95-0.203-1.362
				c-0.137-0.412-0.338-0.768-0.602-1.068s-0.586-0.532-0.965-0.696C173.02,14.188,172.586,14.106,172.098,14.106z"/>
			<path fill="#163760" d="M179.813,24.882V12.726h1.272c0.304,0,0.495,0.148,0.575,0.444l0.168,1.32
				c0.528-0.584,1.118-1.056,1.771-1.416c0.651-0.36,1.406-0.54,2.262-0.54c0.664,0,1.25,0.11,1.758,0.33
				c0.509,0.22,0.933,0.532,1.272,0.936c0.34,0.404,0.598,0.89,0.773,1.458c0.177,0.568,0.265,1.196,0.265,1.884v7.74h-2.136v-7.74
				c0-0.919-0.21-1.634-0.631-2.142c-0.42-0.508-1.062-0.762-1.926-0.762c-0.632,0-1.222,0.152-1.77,0.456
				c-0.548,0.304-1.055,0.716-1.519,1.236v8.952H179.813z"/>
			<path fill="#163760" d="M195.005,12.726v7.752c0,0.92,0.212,1.632,0.637,2.136c0.424,0.504,1.063,0.756,1.92,0.756
				c0.624,0,1.212-0.148,1.764-0.444s1.06-0.708,1.524-1.236v-8.964h2.136v12.156h-1.272c-0.304,0-0.496-0.148-0.575-0.444
				l-0.168-1.308c-0.528,0.584-1.12,1.054-1.776,1.41c-0.656,0.355-1.408,0.534-2.256,0.534c-0.664,0-1.25-0.11-1.758-0.33
				c-0.509-0.22-0.935-0.53-1.278-0.93s-0.603-0.884-0.774-1.452c-0.172-0.568-0.258-1.196-0.258-1.884v-7.752H195.005z"/>
			<path fill="#163760" d="M211.314,12.534c0.728,0,1.399,0.122,2.016,0.366s1.147,0.596,1.596,1.056s0.798,1.028,1.05,1.704
				c0.252,0.676,0.378,1.446,0.378,2.31c0,0.336-0.035,0.56-0.107,0.672c-0.072,0.112-0.208,0.168-0.408,0.168h-8.088
				c0.016,0.768,0.12,1.436,0.312,2.004c0.192,0.568,0.456,1.042,0.792,1.422c0.337,0.38,0.736,0.664,1.2,0.852
				s0.984,0.282,1.561,0.282c0.535,0,0.998-0.062,1.386-0.186c0.388-0.124,0.722-0.258,1.002-0.402s0.514-0.278,0.702-0.402
				c0.188-0.124,0.35-0.186,0.486-0.186c0.176,0,0.312,0.068,0.407,0.204l0.601,0.78c-0.265,0.32-0.58,0.598-0.948,0.834
				c-0.368,0.236-0.762,0.43-1.182,0.582c-0.42,0.152-0.854,0.266-1.303,0.342c-0.447,0.076-0.892,0.114-1.332,0.114
				c-0.84,0-1.613-0.142-2.321-0.426c-0.708-0.284-1.32-0.7-1.836-1.248c-0.517-0.548-0.918-1.226-1.206-2.034
				s-0.433-1.736-0.433-2.784c0-0.848,0.13-1.64,0.391-2.376c0.26-0.736,0.634-1.374,1.122-1.914
				c0.487-0.54,1.084-0.964,1.788-1.272C209.642,12.688,210.434,12.534,211.314,12.534z M211.362,14.106
				c-1.032,0-1.845,0.298-2.437,0.894c-0.592,0.596-0.96,1.422-1.104,2.478h6.611c0-0.496-0.067-0.95-0.203-1.362
				c-0.137-0.412-0.337-0.768-0.601-1.068s-0.586-0.532-0.966-0.696S211.85,14.106,211.362,14.106z"/>
		</g>
		
			<line display="none" fill="none" stroke="#163760" stroke-width="0.8811" stroke-miterlimit="10" x1="215.522" y1="28.335" x2="83.661" y2="28.335"/>
	</g>
</g>
<g id="Layer_3" display="none">
	<path display="inline" fill-rule="evenodd" clip-rule="evenodd" fill="#163760" d="M228.945,112.653
		c-2.043-17.477-17.514-29.147-32.382-28.251c-1.368,0-2.736-0.003-4.104,0.002c-0.253,0.001-0.509,0.018-0.758,0.06
		c-10.027,1.677-17.87,6.793-23.062,15.484c-6.468,10.828-5.944,22.064-0.569,33.106c2.562,5.264,5.75,10.236,8.82,15.238
		c5.21,8.487,9.788,17.252,12.692,26.825c2.048,6.748,3.352,13.635,4.025,20.647c0.161,1.679,1.058,2.672,2.47,2.743
		c2.308,0.117,3.096-0.41,3.514-2.381c0.104-0.493,0.143-1,0.211-1.501c0.376-2.753,0.65-5.524,1.147-8.256
		c2.283-12.539,6.982-24.152,13.528-35.058c3.543-5.901,7.134-11.779,10.457-17.804
		C228.504,127.036,229.801,119.977,228.945,112.653z M196.682,130.246c-7.637-0.003-13.47-5.837-13.521-13.398
		c-0.053-7.732,6.35-13.772,14.043-13.573c7.137,0.185,13.099,6.352,13.007,13.867C210.121,124.333,203.968,130.591,196.682,130.246
		z"/>
</g>
<g id="Layer_2" display="none">
	<path display="inline" fill="#163760" d="M85.791,104.277h-94c-1.657,0-3,1.343-3,3v94.001c0,1.656,1.343,3,3,3h94
		c1.657,0,3-1.344,3-3v-94.001C88.791,105.62,87.448,104.277,85.791,104.277z M3.791,122.939c-3.59,0-6.5-2.91-6.5-6.5
		s2.91-6.5,6.5-6.5s6.5,2.91,6.5,6.5S7.381,122.939,3.791,122.939z M27.125,122.939c-3.59,0-6.5-2.91-6.5-6.5s2.91-6.5,6.5-6.5
		s6.5,2.91,6.5,6.5S30.714,122.939,27.125,122.939z M50.458,122.939c-3.59,0-6.5-2.91-6.5-6.5s2.91-6.5,6.5-6.5s6.5,2.91,6.5,6.5
		S54.047,122.939,50.458,122.939z M73.791,122.939c-3.59,0-6.5-2.91-6.5-6.5s2.91-6.5,6.5-6.5s6.5,2.91,6.5,6.5
		S77.381,122.939,73.791,122.939z"/>
	
		<text transform="matrix(1 0 0 1 14.6064 190.5859)" display="inline" fill="#FFFFFF" font-family="'Lato-Black'" font-size="72" letter-spacing="12">1</text>
</g>
</svg>
